<?xml version="1.0" standalone="no"?>
<!DOCTYPE svg PUBLIC "-//W3C//DTD SVG 20010904//EN"
 "http://www.w3.org/TR/2001/REC-SVG-20010904/DTD/svg10.dtd">
<svg version="1.0" xmlns="http://www.w3.org/2000/svg"
 width="360.000000pt" height="360.000000pt" viewBox="0 0 360.000000 360.000000"
 preserveAspectRatio="xMidYMid meet">

<g transform="translate(0.000000,360.000000) scale(0.100000,-0.100000)"
fill="#000000" stroke="none">
<path d="M3535 2873 c-43 -116 -143 -259 -252 -364 -136 -130 -273 -212 -580
-348 -354 -157 -482 -232 -605 -355 -237 -239 -281 -558 -123 -881 45 -91 167
-272 173 -255 2 5 -4 23 -13 40 -33 64 -85 222 -105 319 -63 309 23 524 265
662 101 58 182 91 425 174 301 103 399 154 524 274 157 152 245 342 296 645
12 70 20 130 17 132 -2 3 -12 -17 -22 -43z"/>
<path d="M30 2896 c0 -78 55 -318 98 -429 122 -315 298 -454 777 -617 284 -96
414 -160 508 -250 121 -115 162 -214 161 -395 -1 -134 -33 -276 -99 -440 -49
-123 -41 -120 57 23 114 168 169 329 170 502 1 130 -17 205 -78 328 -105 210
-271 335 -694 522 -364 161 -507 247 -650 391 -86 87 -152 181 -210 300 -22
45 -40 75 -40 65z"/>
<path d="M1635 2718 c-275 -13 -513 -77 -558 -149 -28 -45 27 -101 138 -139
128 -44 266 -62 520 -67 337 -7 569 25 706 98 91 49 101 98 29 144 -87 55
-289 101 -485 111 -183 9 -215 9 -350 2z m495 -41 c112 -19 158 -32 198 -57
79 -49 10 -95 -198 -131 -102 -18 -556 -19 -669 -1 -162 26 -251 65 -235 105
14 38 155 79 334 96 121 12 470 5 570 -12z"/>
<path d="M135 2160 c3 -19 10 -66 15 -105 46 -305 173 -507 371 -586 88 -34
173 -48 374 -60 105 -6 223 -17 263 -24 165 -32 262 -106 318 -244 28 -68 32
-42 10 72 -36 187 -142 308 -338 386 -40 16 -156 50 -258 75 -102 26 -214 56
-250 68 -246 78 -375 179 -465 361 -34 68 -45 83 -40 57z"/>
<path d="M3427 2132 c-25 -68 -104 -179 -164 -229 -111 -93 -227 -141 -532
-219 -119 -31 -251 -69 -293 -86 -219 -84 -322 -220 -351 -467 -6 -52 3 -44
27 22 24 65 113 160 180 191 75 36 186 54 393 66 101 5 218 17 260 25 275 56
427 247 488 611 20 123 17 157 -8 86z"/>
<path d="M740 1294 c65 -82 92 -110 143 -144 70 -47 99 -56 240 -75 59 -8 124
-22 145 -31 69 -29 120 -92 154 -192 l19 -57 -5 105 c-5 127 -29 200 -86 259
-68 70 -142 95 -330 111 -125 11 -243 27 -275 37 -18 5 -19 4 -5 -13z"/>
<path d="M2807 1300 c-15 -5 -103 -16 -196 -24 -285 -27 -365 -64 -425 -197
-27 -58 -50 -190 -44 -250 3 -33 4 -32 25 26 56 152 115 195 298 219 174 23
237 54 334 163 65 73 66 80 8 63z"/>
</g>
</svg>
