<?xml version="1.0" standalone="no"?>
<!DOCTYPE svg PUBLIC "-//W3C//DTD SVG 20010904//EN"
 "http://www.w3.org/TR/2001/REC-SVG-20010904/DTD/svg10.dtd">
<svg version="1.0" xmlns="http://www.w3.org/2000/svg"
 width="500.000000pt" height="500.000000pt" viewBox="0 0 500.000000 500.000000"
 preserveAspectRatio="xMidYMid meet">

<g transform="translate(0.000000,500.000000) scale(0.100000,-0.100000)"
fill="#000000" stroke="none">
<path d="M2275 3994 c-169 -26 -423 -113 -573 -196 -201 -110 -429 -320 -548
-504 -69 -108 -148 -265 -180 -362 -58 -176 -64 -252 -64 -876 0 -646 -1 -640
77 -758 54 -82 109 -129 194 -166 l64 -27 1260 0 1260 0 58 23 c78 32 146 88
196 162 78 118 76 97 76 790 0 556 -2 623 -18 700 -88 412 -357 773 -748 1003
-168 98 -418 186 -616 216 -97 15 -328 12 -438 -5z m450 -228 c116 -18 235
-49 332 -86 43 -17 83 -30 89 -30 16 0 219 -102 264 -132 71 -48 112 -68 123
-62 7 4 9 4 5 -1 -12 -12 11 -35 28 -28 12 4 7 15 -23 47 -37 40 -37 40 -4 11
64 -56 62 -52 43 -60 -14 -6 -13 -9 11 -21 15 -8 32 -12 39 -8 6 4 9 1 6 -7
-5 -14 14 -39 29 -39 10 -1 108 -126 139 -178 43 -71 112 -236 139 -327 39
-135 55 -268 55 -472 l0 -183 -557 0 -557 0 34 35 c19 19 41 35 49 35 13 0 14
2 2 9 -10 7 4 18 55 44 45 23 74 44 82 61 11 25 11 25 -21 20 -18 -3 -45 -10
-61 -15 -38 -12 -76 -12 -76 1 0 15 39 36 115 60 38 13 76 29 84 37 7 8 20 12
27 9 8 -3 14 1 14 9 0 8 5 14 12 12 6 -1 14 6 16 16 5 22 -3 22 -83 -8 -37
-14 -70 -23 -74 -19 -10 10 90 93 122 100 16 3 47 22 69 42 22 20 81 55 131
78 92 41 92 41 104 20 7 -11 12 -26 13 -32 0 -6 -39 -26 -87 -44 -97 -37 -113
-46 -113 -65 0 -26 33 -24 127 6 102 33 113 31 113 -18 0 -18 -8 -22 -50 -28
-52 -7 -76 -29 -60 -54 6 -11 23 -12 68 -7 l60 7 7 -31 c4 -17 5 -33 3 -34 -1
-2 -39 -7 -83 -12 -70 -8 -80 -11 -80 -29 0 -18 8 -20 87 -23 l87 -3 3 -42 c2
-35 8 -44 31 -55 25 -12 31 -12 48 4 11 10 19 30 19 51 0 32 1 33 44 33 59 0
76 8 76 35 0 27 -17 35 -75 35 -40 0 -43 2 -47 30 -5 33 -3 34 77 45 59 8 95
28 95 54 0 36 -25 44 -114 39 -83 -6 -85 -5 -91 19 -8 32 -1 40 38 48 41 9 57
22 57 47 0 26 -25 33 -73 18 -36 -11 -42 -10 -54 6 -7 10 -13 24 -13 31 0 7
39 32 88 55 81 40 87 45 87 73 0 25 -4 30 -27 33 -15 2 -66 -12 -113 -31 l-85
-35 -15 21 c-22 32 -19 43 19 67 40 24 47 38 34 63 -12 24 -38 21 -78 -8 l-35
-25 -17 22 c-25 33 -23 42 20 73 69 51 122 109 122 131 0 24 -31 41 -52 28 -7
-4 -29 -7 -49 -5 -33 1 -44 -5 -93 -53 l-56 -55 -24 24 -24 24 30 28 c33 32
34 66 2 71 -14 2 -32 -8 -50 -27 l-29 -31 -27 23 -27 22 55 84 c30 47 54 95
54 108 0 26 -27 43 -52 34 -15 -5 -87 -98 -124 -157 -6 -11 -17 -15 -27 -11
-15 5 -14 11 8 49 34 59 33 78 -5 78 -24 0 -34 -7 -52 -40 -25 -43 -29 -45
-59 -30 -18 10 -18 13 -3 48 37 87 37 112 -2 112 -21 0 -29 -10 -50 -57 -14
-32 -27 -59 -28 -60 -7 -8 -92 27 -94 38 -1 8 4 55 11 104 15 96 9 125 -23
125 -32 0 -47 -26 -69 -125 -21 -87 -25 -96 -44 -93 -20 3 -22 9 -22 68 l0 65
-30 0 c-29 0 -30 -2 -39 -57 -7 -51 -11 -58 -31 -58 -24 0 -27 13 -38 184 -2
46 -27 67 -54 50 -15 -9 -19 -32 -25 -119 -6 -105 -13 -124 -44 -125 -6 0 -15
28 -20 62 -7 48 -13 64 -27 66 -36 7 -48 -16 -41 -79 6 -58 6 -59 -19 -59 -23
0 -26 6 -47 93 -24 100 -45 133 -78 123 -30 -10 -33 -28 -17 -119 21 -121 22
-120 -29 -138 l-45 -16 -27 64 c-25 57 -30 64 -53 61 -35 -4 -37 -28 -10 -94
20 -47 21 -57 9 -64 -25 -16 -34 -11 -55 28 -13 24 -28 38 -44 40 -39 6 -46
-12 -22 -60 24 -51 26 -65 9 -71 -7 -2 -24 12 -37 32 -52 79 -104 141 -122
146 -17 6 -16 9 11 32 127 107 408 222 615 252 94 13 261 12 360 -3z m-1032
-306 c-4 -17 46 -115 99 -192 10 -13 8 -20 -13 -37 l-24 -21 -26 31 c-19 21
-34 30 -50 27 -33 -4 -35 -33 -4 -70 l26 -31 -24 -25 -25 -25 -67 57 c-42 36
-75 56 -91 56 l-26 0 34 43 c27 35 189 207 194 207 1 0 0 -9 -3 -20z m1922
-50 c3 -6 -1 -7 -9 -4 -18 7 -21 14 -7 14 6 0 13 -4 16 -10z m-1151 -112 c3
-40 7 -89 9 -108 2 -30 6 -35 27 -35 25 0 25 0 28 108 l3 107 35 0 36 0 -4
-114 c-1 -63 1 -118 5 -122 4 -5 16 -3 25 2 13 8 21 39 31 118 l15 107 30 -7
c44 -9 44 -9 35 -56 -12 -64 -11 -85 7 -92 26 -10 42 11 54 69 l11 53 39 -15
38 -15 -39 -116 c-34 -98 -38 -117 -26 -129 25 -25 43 -3 88 107 24 61 46 110
49 110 14 0 70 -41 70 -51 0 -7 -20 -49 -45 -95 -47 -86 -53 -109 -32 -117 24
-9 45 13 92 98 26 47 51 85 54 85 3 -1 19 -11 35 -25 l30 -24 -38 -45 c-67
-82 -26 -118 46 -41 l43 46 28 -29 27 -28 -62 -51 c-35 -28 -88 -72 -118 -97
-30 -26 -68 -54 -83 -64 -16 -9 -68 -47 -115 -84 -48 -37 -132 -97 -188 -133
l-101 -65 -52 10 c-89 17 -168 -9 -233 -77 -68 -70 -95 -170 -69 -261 l10 -32
-552 0 -552 0 7 141 c7 162 13 193 33 185 7 -2 41 -8 75 -12 33 -4 63 -10 66
-15 2 -4 2 -20 -2 -34 -6 -22 -11 -25 -54 -25 -94 0 -95 -63 -1 -68 51 -3 51
-3 51 -37 0 -41 22 -65 52 -58 35 9 48 23 48 52 0 44 11 50 95 53 72 3 80 5
80 23 0 18 -10 21 -82 29 -66 7 -83 12 -83 25 0 14 2 14 10 1 7 -11 9 -7 7 15
l-2 30 65 0 c55 0 65 3 68 19 5 23 -10 32 -64 41 -50 7 -59 17 -44 45 14 26
27 25 128 -6 62 -18 88 -22 96 -14 21 21 -10 45 -99 78 -49 17 -90 33 -91 35
-1 1 8 14 21 29 l23 27 97 -41 c89 -38 98 -40 113 -25 14 15 14 18 -3 37 -10
11 -21 20 -26 20 -4 0 -41 16 -84 36 -48 23 -72 40 -64 44 6 5 9 15 6 25 -4 9
-3 14 2 10 5 -3 11 0 13 5 2 6 25 -3 51 -20 55 -35 60 -36 78 -14 12 15 8 21
-27 53 -37 33 -69 82 -43 66 6 -4 9 0 7 10 -6 34 33 24 81 -19 81 -74 111 -95
126 -90 29 11 14 39 -56 110 l-71 71 25 28 24 29 33 -37 c57 -66 107 -37 53
31 -37 47 -50 67 -36 59 11 -7 37 16 28 25 -3 2 5 4 16 3 25 -2 42 -21 75 -91
30 -64 49 -82 72 -67 23 14 17 36 -31 117 l-40 70 34 29 c22 19 26 25 11 17
-13 -6 -26 -10 -28 -7 -2 2 7 9 20 15 23 10 27 8 44 -21 11 -18 32 -65 48
-106 30 -78 46 -93 71 -68 15 15 13 25 -20 115 -20 54 -37 106 -37 114 0 8 15
19 34 25 l33 10 17 -59 c14 -52 19 -59 39 -56 24 3 28 30 14 100 -7 36 -7 38
25 46 39 10 40 8 60 -128 12 -78 15 -85 37 -88 l24 -4 -5 121 -5 121 33 0 32
0 6 -72z m-1014 -120 c0 -7 30 -41 66 -75 l67 -62 -20 -30 -19 -31 -34 25
c-39 29 -67 29 -84 2 -12 -19 -3 -30 54 -68 23 -15 23 -16 5 -46 l-17 -30 -88
36 c-77 31 -87 38 -79 53 5 10 6 18 2 18 -4 0 -3 4 3 8 6 4 26 36 44 71 56
112 100 168 100 129z m-114 -363 c43 -20 80 -37 81 -39 5 -5 -19 -56 -26 -56
-3 0 -26 7 -50 15 -49 18 -74 7 -69 -29 2 -15 16 -25 48 -35 56 -17 53 -14 46
-48 l-6 -28 -84 3 -83 3 12 57 c14 66 48 192 52 192 1 0 37 -16 79 -35z m1834
-80 c7 -9 11 -17 9 -18 -17 -14 -73 -48 -114 -72 l-50 -28 41 45 c23 24 50 54
60 66 22 26 37 28 54 7z m-360 -150 c0 -7 -218 -185 -265 -217 -22 -15 -68
-50 -102 -77 -34 -27 -64 -47 -67 -44 -14 14 -5 100 14 130 29 49 64 67 134
69 53 1 69 7 121 41 77 50 159 103 163 103 1 0 2 -2 2 -5z m1190 -530 c0 -31
-3 -35 -27 -35 -16 0 -689 -2 -1498 -3 l-1470 -2 -3 23 c-8 56 -117 52 1503
52 l1495 0 0 -35z m-2630 -82 c84 -5 107 -9 86 -14 -33 -9 -445 -14 -453 -5
-27 26 116 34 367 19z m-159 -70 c85 -7 90 -8 49 -14 -63 -10 -260 -11 -260
-1 0 24 44 27 211 15z m2532 -37 c18 -7 45 -27 59 -45 23 -27 26 -38 24 -95
-3 -78 -30 -120 -94 -148 -52 -23 -93 -19 -145 16 -34 24 -35 24 -30 2 3 -13
-5 -6 -21 19 -88 137 58 314 207 251z m-2433 -53 c0 -35 0 -36 20 -18 11 10
22 26 25 36 5 14 16 19 41 19 l35 0 -6 -43 c-12 -79 -32 -262 -29 -266 1 -1
26 5 54 14 28 9 54 15 56 12 3 -3 -31 -76 -76 -163 -88 -174 -87 -174 -64 -6
l7 44 -33 -17 c-17 -9 -33 -15 -34 -13 -2 2 1 52 6 112 4 60 7 110 5 112 -1 2
-23 -14 -47 -36 -25 -22 -49 -39 -54 -40 -8 0 -2 138 10 243 l6 47 39 0 c38 0
39 -1 39 -37z m-215 11 l40 -8 -60 -7 c-33 -4 -64 -4 -69 1 -14 14 4 30 27 26
12 -3 40 -8 62 -12z m2271 -451 c-3 -4 -975 -6 -1506 -3 -191 1 -213 2 -196
15 17 13 135 15 843 15 l823 0 0 157 c0 121 4 169 18 212 l17 55 3 -223 c1
-123 1 -226 -2 -228z m-2271 376 c5 -5 -13 -9 -43 -9 -47 0 -62 7 -46 23 8 7
77 -3 89 -14z m855 -119 l0 -110 -80 0 -80 0 0 103 c0 57 3 107 7 110 3 4 39
7 80 7 l73 0 0 -110z m250 0 l0 -110 -75 0 -75 0 0 110 0 110 75 0 75 0 0
-110z m250 0 l0 -110 -75 0 -75 0 0 110 0 110 75 0 75 0 0 -110z m258 -3 l3
-108 -77 3 -77 3 1 105 c1 58 2 106 2 108 0 2 33 2 73 0 l72 -3 3 -108z m162
3 c0 -11 7 -20 15 -20 8 0 15 9 15 20 0 11 7 20 15 20 12 0 15 -13 15 -60 0
-47 -3 -60 -15 -60 -8 0 -15 9 -15 20 0 11 -7 20 -15 20 -8 0 -15 -9 -15 -20
0 -11 -7 -20 -15 -20 -12 0 -15 13 -15 60 0 47 3 60 15 60 8 0 15 -9 15 -20z
m260 0 c0 -13 7 -20 20 -20 13 0 20 7 20 20 0 11 7 20 15 20 12 0 15 -13 15
-60 0 -47 -3 -60 -15 -60 -9 0 -15 10 -15 26 0 33 -33 30 -38 -4 -2 -12 -10
-22 -18 -22 -11 0 -14 15 -14 60 0 47 3 60 15 60 8 0 15 -9 15 -20z m450 -278
c1 -15 2 -15 15 2 9 12 20 16 31 12 10 -4 21 -1 25 6 14 22 22 -18 12 -59 -10
-43 -28 -53 -39 -21 l-7 23 -8 -23 c-14 -38 -36 -26 -47 25 -6 26 -8 51 -6 55
8 13 24 -1 24 -20z m175 8 c3 -5 -1 -10 -9 -10 -12 0 -16 -11 -16 -41 0 -52
-24 -48 -28 4 -2 20 -7 37 -13 37 -5 0 -9 5 -9 10 0 6 15 10 34 10 19 0 38 -4
41 -10z"/>
<path d="M3629 1785 c-73 -39 -20 -168 62 -150 16 4 38 18 49 32 60 76 -24
165 -111 118z"/>
</g>
</svg>
